Coordinates
version=1
nRows=49
nColumns=12
inDegrees=yes

Units are S.I. units (second, meters, Newtons, ...)
Angles are in degrees

endheader
time	SC_y	SC_z	SC_x	AC_y	AC_z	AC_x	GH_y	GH_z	GH_yy	EL_x	PS_y
       0.0              -59.01          11.95          37.61          54.75         -15.35         0.4312          122.9         -12.05         -68.64          49.94          141.8
   0.01619              -59.01          11.95          37.61          54.76         -15.35         0.4298          122.9         -12.04         -68.61          49.94          141.8
   0.03237              -59.01          11.94          37.61          54.76         -15.35         0.4283          122.9         -12.03         -68.59          49.95          141.8
   0.04856              -59.01          11.94           37.6          54.76         -15.34         0.4267          122.9         -12.03         -68.56          49.96          141.8
   0.06475              -59.01          11.94           37.6          54.76         -15.34          0.425          122.8         -12.02         -68.54          49.97          141.8
   0.08093               -59.0          11.94           37.6          54.76         -15.33         0.4232          122.8         -12.02         -68.51          49.98          141.8
   0.09712               -59.0          11.94           37.6          54.76         -15.33         0.4212          122.8         -12.01         -68.47          49.98          141.8
    0.1133               -59.0          11.93          37.59          54.77         -15.33         0.4192          122.7          -12.0         -68.44          49.99          141.7
    0.1295               -59.0          11.93          37.59          54.77         -15.32          0.417          122.7         -11.99         -68.41           50.0          141.7
    0.1457               -59.0          11.93          37.59          54.77         -15.32         0.4146          122.7         -11.98         -68.37          50.01          141.7
    0.1619               -59.0          11.92          37.58          54.77         -15.31          0.412          122.6         -11.97         -68.33          50.03          141.7
    0.1781               -59.0          11.92          37.58          54.78          -15.3         0.4093          122.6         -11.96         -68.28          50.04          141.7
    0.1942               -59.0          11.92          37.57          54.78          -15.3         0.4063          122.6         -11.95         -68.23          50.05          141.7
    0.2104              -58.99          11.91          37.57          54.78         -15.29         0.4031          122.5         -11.94         -68.18          50.07          141.7
    0.2266              -58.99          11.91          37.56          54.79         -15.28         0.3996          122.5         -11.93         -68.12          50.08          141.6
    0.2428              -58.99           11.9          37.56          54.79         -15.27         0.3959          122.4         -11.91         -68.06           50.1          141.6
     0.259              -58.99           11.9          37.55          54.79         -15.27         0.3918          122.3          -11.9          -68.0          50.12          141.6
    0.2752              -58.99          11.89          37.55           54.8         -15.26         0.3873          122.3         -11.88         -67.93          50.14          141.6
    0.2914              -58.99          11.88          37.54           54.8         -15.25         0.3825          122.2         -11.86         -67.85          50.16          141.5
    0.3076              -58.98          11.88          37.53          54.81         -15.23         0.3771          122.1         -11.84         -67.76          50.19          141.5
    0.3237              -58.98          11.87          37.52          54.81         -15.22         0.3713          122.0         -11.82         -67.67          50.21          141.5
    0.3399              -58.98          11.86          37.51          54.82         -15.21         0.3648          121.9          -11.8         -67.56          50.24          141.4
    0.3561              -58.97          11.85           37.5          54.83         -15.19         0.3577          121.8         -11.77         -67.45          50.28          141.4
    0.3723              -58.97          11.84          37.49          54.84         -15.17         0.3499          121.7         -11.74         -67.32          50.31          141.4
    0.3885              -58.97          11.83          37.48          54.84         -15.15         0.3411          121.6         -11.71         -67.18          50.35          141.3
    0.4047              -58.96          11.82          37.46          54.85         -15.13         0.3313          121.4         -11.67         -67.02           50.4          141.2
    0.4209              -58.96           11.8          37.45          54.86         -15.11         0.3204          121.3         -11.63         -66.84          50.45          141.2
     0.437              -58.95          11.78          37.43          54.88         -15.08         0.3081          121.1         -11.58         -66.64          50.51          141.1
    0.4532              -58.94          11.77          37.41          54.89         -15.05         0.2942          120.9         -11.53         -66.42          50.57          141.0
    0.4694              -58.94          11.75          37.39          54.91         -15.02         0.2784          120.7         -11.47         -66.16          50.64          140.9
    0.4856              -58.93          11.72          37.36          54.92         -14.98         0.2604          120.4          -11.4         -65.87          50.73          140.8
    0.5018              -58.92          11.69          37.33          54.94         -14.93         0.2397          120.1         -11.32         -65.53          50.82          140.7
     0.518              -58.91          11.66          37.29          54.97         -14.88         0.2158          119.7         -11.23         -65.15          50.93          140.6
    0.5342              -58.89          11.62          37.25           55.0         -14.82          0.188          119.3         -11.13          -64.7          51.06          140.4
    0.5504              -58.88          11.58           37.2          55.03         -14.75         0.1556          118.9          -11.0         -64.17          51.21          140.3
    0.5665              -58.86          11.53          37.15          55.07         -14.66         0.1173          118.3         -10.86         -63.55          51.39          140.0
    0.5827              -58.84          11.47          37.08          55.11         -14.56        0.07179          117.6         -10.69         -62.81           51.6          139.8
    0.5989              -58.81           11.4           37.0          55.17         -14.44        0.01726          116.8         -10.48         -61.93          51.85          139.5
    0.6151              -58.78          11.31           36.9          55.23          -14.3       -0.04871          115.8         -10.23         -60.86          52.16          139.1
    0.6313              -58.74           11.2          36.78          55.31         -14.12        -0.1293          114.7         -9.929         -59.56          52.53          138.6
    0.6475              -58.69          11.07          36.64          55.41          -13.9        -0.2288          113.2         -9.553         -57.95          52.99          138.1
    0.6637              -58.64           10.9          36.45          55.53         -13.63        -0.3528          111.4         -9.085         -55.94          53.56          137.4
    0.6799              -58.56           10.7          36.22          55.69         -13.29         -0.509          109.0         -8.495         -53.41          54.28          136.5
     0.696              -58.47          10.43          35.93          55.89         -12.85        -0.7077          106.1         -7.745         -50.19           55.2          135.4
    0.7122              -58.35          10.09          35.56          56.14         -12.29        -0.9619          102.4         -6.785         -46.07          56.37          133.9
    0.7284              -58.19           9.66          35.07          56.46         -11.58         -1.288          97.55         -5.552         -40.79          57.88          132.1
    0.7446              -57.99          9.105          34.46          56.88         -10.66         -1.705           91.4         -3.979         -34.04          59.81          129.7
    0.7608              -57.75          8.408          33.69           57.4         -9.512         -2.229          83.66           -2.0         -25.55          62.23          126.7
     0.777              -57.44          7.558          32.74          58.04          -8.11         -2.867          74.24         0.4121         -15.21          65.18          123.1
